<svg width="37" height="37" viewBox="0 0 37 37" fill="none" xmlns="http://www.w3.org/2000/svg">
<path fill-rule="evenodd" clip-rule="evenodd" d="M21.307 1.07787C21.1765 1.16576 20.9978 1.34449 20.9099 1.47499C20.7505 1.71152 20.75 1.7201 20.75 4.41687C20.75 7.02166 20.7553 7.13093 20.8954 7.37716C21.1344 7.79742 21.3502 7.9147 21.875 7.90957C22.1307 7.90704 22.475 7.85058 22.6566 7.78132C23.7272 7.37301 24.5869 8.751 23.7572 9.54539C23.4281 9.86046 23.0247 9.95341 22.6358 9.80379C22.4687 9.73952 22.158 9.67329 21.9453 9.65669C21.4984 9.62175 21.1862 9.78368 20.9099 10.1937C20.7504 10.4303 20.75 10.4381 20.75 13.1523C20.75 15.8666 20.7504 15.8744 20.9099 16.111C20.9978 16.2415 21.1765 16.4202 21.307 16.5081C21.5388 16.6643 21.5863 16.668 23.3971 16.668H25.25V16.8993C25.25 17.5768 25.6648 18.4824 26.2377 19.0552C27.8106 20.628 30.4618 20.2714 31.5679 18.3382C31.8016 17.9298 32 17.269 32 16.8993V16.668H33.8529C35.6637 16.668 35.7112 16.6643 35.943 16.5081C36.0735 16.4202 36.2522 16.2415 36.3401 16.111L36.5 15.8737V9.85202C36.5 3.22465 36.5103 3.396 36.0656 2.6187C35.7931 2.14254 35.2181 1.57048 34.7626 1.32255C34.0059 0.910805 34.1339 0.917977 27.5659 0.917977H21.5442L21.307 1.07787ZM2.96678 7.77963C2.16458 7.99535 1.35957 8.62556 0.932144 9.3727C0.494308 10.138 0.500004 10.052 0.500004 15.8741V21.168H2.74571H4.99135L5.03642 20.834C5.21607 19.5022 6.09238 18.4046 7.30266 17.9956C7.93646 17.7814 8.85784 17.7819 9.45915 17.9965C10.7187 18.4462 11.5289 19.4661 11.7135 20.834L11.7586 21.168H12.8793H14V19.2493C14 17.3994 14.0057 17.3193 14.1582 17.0169C14.2738 16.7876 14.4009 16.6605 14.6301 16.5449C15.0211 16.3478 15.2502 16.3459 15.6929 16.5364C16.5079 16.887 17.375 16.3859 17.375 15.5642C17.375 14.7053 16.524 14.192 15.6929 14.5495C15.2502 14.74 15.0211 14.7382 14.6301 14.541C14.4009 14.4254 14.2738 14.2983 14.1582 14.0691C14.0014 13.7582 14 13.7283 14 10.7117V7.66797L8.67383 7.67262C4.2421 7.67648 3.28367 7.69441 2.96678 7.77963ZM7.83985 20.1769C7.30534 20.5028 7.1221 21.1218 7.38156 21.7251C7.57203 22.1677 7.5702 22.3969 7.37305 22.7878C7.25745 23.017 7.13033 23.1442 6.90111 23.2598C6.59019 23.4166 6.56031 23.418 3.54369 23.418H0.500004V28.7118C0.500004 34.534 0.494308 34.448 0.932144 35.2132C1.20763 35.6948 1.72316 36.2103 2.20473 36.4858C2.97001 36.9237 2.88402 36.918 8.70617 36.918H14V34.6723V32.4266L13.666 32.3779C12.6587 32.2311 11.8546 31.7671 11.2987 31.0119C10.4475 29.8558 10.4475 28.2302 11.2987 27.074C11.8502 26.3248 12.6965 25.8352 13.666 25.7044L14 25.6593V24.5387V23.418H12.0813C10.2313 23.418 10.1514 23.4123 9.84917 23.2598C9.48987 23.0784 9.2217 22.672 9.21988 22.306C9.21924 22.1778 9.28611 21.9164 9.36845 21.7251C9.63071 21.1153 9.47595 20.5672 8.9382 20.2012C8.64303 20.0003 8.1474 19.9893 7.83985 20.1769ZM16.25 25.3367C16.25 27.1866 16.2443 27.2666 16.0918 27.5691C15.9762 27.7983 15.8491 27.9254 15.6199 28.041C15.2289 28.2382 14.9998 28.24 14.5571 28.0495C13.7421 27.6989 12.875 28.2001 12.875 29.0217C12.875 29.8806 13.726 30.394 14.5571 30.0364C14.9998 29.8459 15.2289 29.8478 15.6199 30.0449C15.8491 30.1605 15.9762 30.2876 16.0918 30.5169C16.2486 30.8278 16.25 30.8577 16.25 33.8743V36.918H21.5438C27.366 36.918 27.28 36.9237 28.0453 36.4858C28.5268 36.2103 29.0424 35.6948 29.3179 35.2132C29.7557 34.448 29.75 34.534 29.75 28.7118V23.418H27.5043H25.2586L25.2135 23.752C24.9751 25.518 23.6632 26.7196 21.9453 26.7453C20.175 26.7717 18.7784 25.5454 18.5364 23.752L18.4913 23.418H17.3707H16.25V25.3367Z" fill="#18384F"/>
</svg>
